Coordinates
nRows=12
nColumns=24

# SIMM Motion File Header:
name Coordinates
datacolumns 24
datarows 12
otherdata 1
range 1.26000000000000000000 1.27100000000000010000
endheader
time	pelvis_tx	pelvis_ty	pelvis_tz	pelvis_tilt	pelvis_list	pelvis_rotation	hip_flexion_r	hip_adduction_r	hip_rotation_r	knee_angle_r	ankle_angle_r	subtalar_angle_r	mtp_angle_r	hip_flexion_l	hip_adduction_l	hip_rotation_l	knee_angle_l	ankle_angle_l	subtalar_angle_l	mtp_angle_l	lumbar_extension	lumbar_bending	lumbar_rotation
      1.26000000000000000000	      0.59389897786607981000	      1.00821244159612440000	      0.05115763751778916500	      4.70661621813425500000	     -4.13335008464594280000	     -4.34596370032744160000	    -21.34709222525116300000	      4.36404065985829790000	      3.16351663094043500000	     -9.20978259239465840000	     13.94245376417539700000	     -0.00274340113819234900	      3.28371299659412850000	     19.46805677403754600000	     -5.31820997128372410000	     -3.79225301178217800000	     -4.62462928550058640000	     -1.05255137464800620000	      0.17255516916865818000	     -4.80913207749514000000	    -16.42390208434668300000	      2.77590468049172000000	      3.87512980938111350000
      1.26100000000000010000	      0.59404558852058065000	      1.00813165918395220000	      0.05111140424497157000	      4.70266996395832320000	     -4.12712880784106950000	     -4.36274370252292250000	    -21.36260827035769700000	      4.34243113328103640000	      3.18957951467045580000	     -9.31947471129005400000	     13.97962353308944800000	      0.00683738064630626510	      3.27816888096239540000	     19.49384858547066200000	     -5.30657410823374680000	     -3.78170423211354660000	     -4.77330892771368380000	     -1.10086067517032690000	      0.17018350254556941000	     -4.65556823763330560000	    -16.40892711108134700000	      2.74441129806657360000	      3.87128584820641080000
      1.26200000000000000000	      0.59419245274720311000	      1.00805111272372510000	      0.05106512816641620200	      4.69874637122524330000	     -4.12088379164540530000	     -4.37950430511637730000	    -21.37803887011035200000	      4.32081604311574270000	      3.21560480336846590000	     -9.42940073401242530000	     14.01687955365338200000	      0.01641782722701603000	      3.27243793219156490000	     19.51961317001424600000	     -5.29490783711066370000	     -3.77122799010047020000	     -4.92215913011066060000	     -1.14955052850011150000	      0.16751291199850102000	     -4.50154911276157410000	    -16.39395135607889700000	      2.71287913579535410000	      3.86742148933769060000
      1.26300000000000010000	      0.59434317076081844000	      1.00797441562336280000	      0.05101813391638183900	      4.69523169126495520000	     -4.11436742175085880000	     -4.39593048313473830000	    -21.39222880374832400000	      4.29924346944383910000	      3.24115965876777160000	     -9.54272807336941930000	     14.05129283264464100000	      0.02334235166827001300	      3.27051320632071900000	     19.54488775289753700000	     -5.28289909243749540000	     -3.76189362728609610000	     -5.07352776314735540000	     -1.20170880574786780000	      0.16286717938785447000	     -4.34259482215375940000	    -16.37903801006306600000	      2.68087018014132110000	      3.86324097692405520000
      1.26400000000000000000	      0.59449517337009805000	      1.00789900164295560000	      0.05097090027585449900	      4.69185331556226700000	     -4.10776060062335180000	     -4.41224518629472760000	    -21.40600518201473100000	      4.27768506793640490000	      3.26655770306750040000	     -9.65718918493792880000	     14.08475853111166000000	      0.02938156872969680300	      3.26985722141654470000	     19.56999900189405000000	     -5.27077618991430170000	     -3.75293989087129500000	     -5.22573587306391650000	     -1.25502322430160770000	      0.15756306608934506000	     -4.18199547630061820000	    -16.36414546704277500000	      2.64870229335969220000	      3.85895507999544840000
      1.26500000000000010000	      0.59464856385095943000	      1.00782497383628410000	      0.05092336253317533000	      4.68859130931685190000	     -4.10110728643892840000	     -4.42841283892971220000	    -21.41928746423781500000	      4.25621231263805910000	      3.29179575040424010000	     -9.77285721700329010000	     14.11601171571447800000	      0.03392285014399837300	      3.27211957983626790000	     19.59497838186063500000	     -5.25859959420212860000	     -3.74442580258534450000	     -5.37887400977424780000	     -1.30795252342429550000	      0.15300853032203637000	     -4.02304385462317260000	    -16.34924115775123000000	      2.61643446264031310000	      3.85454192861871770000
      1.26600000000000000000	      0.59480611794656579000	      1.00775510455081930000	      0.05087491248404071900	      4.68567841144326370000	     -4.09431449308375760000	     -4.44413933998966200000	    -21.43108745833090400000	      4.23499649596700150000	      3.31655380685198380000	     -9.89214601055914680000	     14.14062735872459500000	      0.03397032461686837900	      3.28313696822778180000	     19.61956215473740200000	     -5.24626191892302350000	     -3.73723065868597000000	     -5.53480222686578300000	     -1.35972646425376650000	      0.15070272714835994000	     -3.86903540547301050000	    -16.33430154964592900000	      2.58386680010770810000	      3.84974701389761530000
      1.26700000000000010000	      0.59496367204217226000	      1.00768523526535470000	      0.05082646243490610000	      4.68276551356967460000	     -4.08752169972858500000	     -4.45986584104961550000	    -21.44288745242399600000	      4.21378067929593850000	      3.34131186329973320000	    -10.01143480411502800000	     14.16524300173471800000	      0.03401779908973839200	      3.29415435661929790000	     19.64414592761417200000	     -5.23392424364391480000	     -3.73003551478659330000	     -5.69073044395735380000	     -1.41150040508324910000	      0.14839692397468299000	     -3.71502695632281470000	    -16.31936194154062400000	      2.55129913757509600000	      3.84495209917651160000
      1.26800000000000000000	      0.59512533645125121000	      1.00761927797882470000	      0.05077697385013977400	      4.67997666726300300000	     -4.08066339880389250000	     -4.47510628897056060000	    -21.45282529873211200000	      4.19292641617267850000	      3.36542180857455750000	    -10.13466244913041500000	     14.18511291836224500000	      0.03061554274542129300	      3.30978447891721310000	     19.66861417011140000000	     -5.22155460756929110000	     -3.72416368765166930000	     -5.84948385940807740000	     -1.45868474944549840000	      0.15120034195616777000	     -3.57358038075116950000	    -16.30413499108640400000	      2.51856315402668280000	      3.83973716573321420000
      1.26900000000000010000	      0.59528837096482101000	      1.00755462469193980000	      0.05072713908682952700	      4.67722917147863800000	     -4.07378326202269040000	     -4.49018471917850540000	    -21.46214242911190000000	      4.17219267089868230000	      3.38931571679174400000	    -10.25920304463236100000	     14.20340092619555400000	      0.02606337612868910000	      3.32695217918395650000	     19.69304390248212000000	     -5.20917431789615650000	     -3.71873296610490070000	     -6.00917900764524850000	     -1.50433922831865960000	      0.15570683365606788000	     -3.43632109637239940000	    -16.28881225984920500000	      2.48577106347299190000	      3.83438222604918180000
      1.27000000000000000000	      0.59545246623073733000	      1.00749095215429960000	      0.05067700558251744100	      4.67446212585102310000	     -4.06688019787894990000	     -4.50513452246760960000	    -21.47086734765321100000	      4.15154755998189810000	      3.41297028839316940000	    -10.38490201772285300000	     14.22167318252426100000	      0.02117187795665550300	      3.34345371698914740000	     19.71750011054615100000	     -5.19678662427816730000	     -3.71362127426641030000	     -6.16958440024460050000	     -1.54876060345543260000	      0.16155175359576618000	     -3.30243280122627650000	    -16.27335538931887300000	      2.45293703751231100000	      3.82891148298339520000
      1.27100000000000010000	      0.59561974375369342000	      1.00743022186439400000	      0.05062597585519978300	      4.67163643069365530000	     -4.05990835164758930000	     -4.51969844500020200000	    -21.47781563067905700000	      4.13116835213673820000	      3.43590685014731800000	    -10.51407612357916800000	     14.23989818433917900000	      0.01526238511869224500	      3.35795676740965330000	     19.74203574569014600000	     -5.18437671882560110000	     -3.70946667155276890000	     -6.33212052593068360000	     -1.58948266738300430000	      0.17141195825494748000	     -3.17865747377818630000	    -16.25749610090911500000	      2.41997720533062570000	      3.82309332977233440000
